<?xml version="1.0" standalone="no"?>
<!DOCTYPE svg PUBLIC "-//W3C//DTD SVG 20010904//EN"
 "http://www.w3.org/TR/2001/REC-SVG-20010904/DTD/svg10.dtd">
<svg version="1.0" xmlns="http://www.w3.org/2000/svg"
 width="64.000000pt" height="64.000000pt" viewBox="0 0 64.000000 64.000000"
 preserveAspectRatio="xMidYMid meet">

<g transform="translate(0.000000,64.000000) scale(0.100000,-0.100000)"
fill="#ff0000" stroke="none">
<path d="M12 628 c-8 -8 -12 -48 -12 -115 l0 -103 320 0 320 0 0 103 c0 114
-6 127 -57 127 -26 0 -33 -4 -33 -20 0 -25 -30 -41 -53 -29 -9 6 -17 19 -17
29 0 19 -8 20 -160 20 -152 0 -160 -1 -160 -20 0 -10 -8 -23 -17 -29 -23 -12
-53 4 -53 29 0 16 -7 20 -33 20 -18 0 -38 -5 -45 -12z m88 -112 c0 -57 -15
-80 -46 -74 -26 5 -29 28 -5 28 19 0 21 6 21 50 0 38 4 50 15 50 11 0 15 -13
15 -54z m42 7 c3 -40 6 -48 23 -48 17 0 20 8 23 48 2 33 7 47 18 47 21 0 19
-88 -3 -112 -20 -22 -51 -23 -75 -1 -23 21 -26 113 -4 113 11 0 16 -14 18 -47z
m118 -2 c0 -42 3 -50 20 -53 33 -5 23 -23 -12 -23 l-33 0 -3 63 c-2 51 0 62
13 62 11 0 15 -11 15 -49z m180 -6 c0 -8 -7 -15 -15 -15 -8 0 -15 7 -15 15 0
8 7 15 15 15 8 0 15 -7 15 -15z m58 3 c-3 -7 -11 -13 -18 -13 -7 0 -15 6 -17
13 -3 7 4 12 17 12 13 0 20 -5 18 -12z m52 -3 c0 -8 -7 -15 -15 -15 -8 0
-15 7 -15 15 0 8 7 15 15 15 8 0 15 -7 15 -15z m50 0 c0 -8 -7 -15 -15 -15 -8 0
-15 7 -15 15 0 8 7 15 15 15 8 0 15 -7 15 -15z m-162 -52 c-4 -22 -22 -20 -26
1 -2 10 3 16 13 16 10 0 15 -7 13 -17z m58 6 c10 -17 -13 -36 -27 -22 -12 12
-4 33 11 33 5 0 12 -5 16 -11z m52 -6 c-4 -22 -22 -20 -26 1 -2 10 3 16 13 16
10 0 15 -7 13 -17z m50 0 c-4 -22 -22 -20 -26 1 -2 10 3 16 13 16 10 0 15 -7
13 -17z"/>
<path d="M164 339 c-4 -7 3 -19 14 -28 19 -14 22 -28 24 -126 2 -90 6 -110 18
-110 12 0 15 23 18 138 l3 137 -35 0 c-19 0 -38 -5 -42 -11z"/>
<path d="M295 340 c-14 -23 17 -40 71 -40 30 0 54 -2 54 -5 0 -3 -24 -50 -52
-105 -41 -76 -50 -101 -41 -111 6 -6 19 -9 27 -6 20 8 139 245 132 263 -7 17
-181 20 -191 4z"/>
</g>
</svg>
